<svg width="160" height="67" viewBox="0 0 160 67" fill="none" xmlns="http://www.w3.org/2000/svg">
<path d="M0 15C0 6.71573 6.71573 0 15 0H145C153.284 0 160 6.71573 160 15V52C160 60.2843 153.284 67 145 67H15C6.71573 67 0 60.2843 0 52V15Z" fill="#318784"/>
<path d="M32.596 43.168C31.14 43.168 29.74 42.9347 28.396 42.468C27.0707 42.0013 26.044 41.3853 25.316 40.62L26.128 39.024C26.8373 39.7333 27.78 40.312 28.956 40.76C30.132 41.1893 31.3453 41.404 32.596 41.404C34.3507 41.404 35.6667 41.0867 36.544 40.452C37.4213 39.7987 37.86 38.9587 37.86 37.932C37.86 37.148 37.6173 36.5227 37.132 36.056C36.6653 35.5893 36.0867 35.2347 35.396 34.992C34.7053 34.7307 33.744 34.4507 32.512 34.152C31.0373 33.7787 29.8613 33.424 28.984 33.088C28.1067 32.7333 27.3507 32.2013 26.716 31.492C26.1 30.7827 25.792 29.8213 25.792 28.608C25.792 27.6187 26.0533 26.7227 26.576 25.92C27.0987 25.0987 27.9013 24.4453 28.984 23.96C30.0667 23.4747 31.4107 23.232 33.016 23.232C34.136 23.232 35.228 23.3907 36.292 23.708C37.3747 24.0067 38.308 24.4267 39.092 24.968L38.392 26.62C37.5707 26.0787 36.6933 25.6773 35.76 25.416C34.8267 25.136 33.912 24.996 33.016 24.996C31.2987 24.996 30.0013 25.332 29.124 26.004C28.2653 26.6573 27.836 27.5067 27.836 28.552C27.836 29.336 28.0693 29.9707 28.536 30.456C29.0213 30.9227 29.6187 31.2867 30.328 31.548C31.056 31.7907 32.0267 32.0613 33.24 32.36C34.6773 32.7147 35.8347 33.0693 36.712 33.424C37.608 33.76 38.364 34.2827 38.98 34.992C39.596 35.6827 39.904 36.6253 39.904 37.82C39.904 38.8093 39.6333 39.7147 39.092 40.536C38.5693 41.3387 37.7573 41.9827 36.656 42.468C35.5547 42.9347 34.2013 43.168 32.596 43.168ZM43.9986 28.272H45.9866V43H43.9986V28.272ZM45.0066 25.052C44.5959 25.052 44.2506 24.912 43.9706 24.632C43.6906 24.352 43.5506 24.016 43.5506 23.624C43.5506 23.2507 43.6906 22.924 43.9706 22.644C44.2506 22.364 44.5959 22.224 45.0066 22.224C45.4172 22.224 45.7626 22.364 46.0426 22.644C46.3226 22.9053 46.4626 23.2227 46.4626 23.596C46.4626 24.0067 46.3226 24.352 46.0426 24.632C45.7626 24.912 45.4172 25.052 45.0066 25.052ZM65.1541 28.272V41.208C65.1541 43.7093 64.5381 45.5573 63.3061 46.752C62.0928 47.9653 60.2541 48.572 57.7901 48.572C56.4274 48.572 55.1301 48.3667 53.8981 47.956C52.6848 47.564 51.6954 47.0133 50.9301 46.304L51.9381 44.792C52.6474 45.4267 53.5061 45.9213 54.5141 46.276C55.5408 46.6307 56.6141 46.808 57.7341 46.808C59.6008 46.808 60.9728 46.3693 61.8501 45.492C62.7274 44.6333 63.1661 43.2893 63.1661 41.46V39.584C62.5501 40.5173 61.7381 41.2267 60.7301 41.712C59.7408 42.1973 58.6394 42.44 57.4261 42.44C56.0448 42.44 54.7848 42.1413 53.6461 41.544C52.5261 40.928 51.6394 40.0787 50.9861 38.996C50.3514 37.8947 50.0341 36.6533 50.0341 35.272C50.0341 33.8907 50.3514 32.6587 50.9861 31.576C51.6394 30.4933 52.5261 29.6533 53.6461 29.056C54.7661 28.4587 56.0261 28.16 57.4261 28.16C58.6768 28.16 59.8061 28.412 60.8141 28.916C61.8221 29.42 62.6341 30.148 63.2501 31.1V28.272H65.1541ZM57.6221 40.676C58.6861 40.676 59.6474 40.452 60.5061 40.004C61.3648 39.5373 62.0274 38.8933 62.4941 38.072C62.9794 37.2507 63.2221 36.3173 63.2221 35.272C63.2221 34.2267 62.9794 33.3027 62.4941 32.5C62.0274 31.6787 61.3648 31.044 60.5061 30.596C59.6661 30.1293 58.7048 29.896 57.6221 29.896C56.5581 29.896 55.5968 30.12 54.7381 30.568C53.8981 31.016 53.2354 31.6507 52.7501 32.472C52.2834 33.2933 52.0501 34.2267 52.0501 35.272C52.0501 36.3173 52.2834 37.2507 52.7501 38.072C53.2354 38.8933 53.8981 39.5373 54.7381 40.004C55.5968 40.452 56.5581 40.676 57.6221 40.676ZM78.2174 28.16C80.0654 28.16 81.5307 28.7013 82.6134 29.784C83.7147 30.848 84.2654 32.4067 84.2654 34.46V43H82.2774V34.656C82.2774 33.1253 81.8947 31.9587 81.1294 31.156C80.3641 30.3533 79.2721 29.952 77.8534 29.952C76.2667 29.952 75.0067 30.428 74.0734 31.38C73.1587 32.3133 72.7014 33.6107 72.7014 35.272V43H70.7134V28.272H72.6174V30.988C73.1587 30.092 73.9054 29.4013 74.8574 28.916C75.8281 28.412 76.9481 28.16 78.2174 28.16ZM105.307 43.168C102.768 43.168 100.789 42.44 99.3708 40.984C97.9521 39.528 97.2428 37.4093 97.2428 34.628V23.4H99.3148V34.544C99.3148 36.8213 99.8281 38.52 100.855 39.64C101.881 40.76 103.365 41.32 105.307 41.32C107.267 41.32 108.76 40.76 109.787 39.64C110.813 38.52 111.327 36.8213 111.327 34.544V23.4H113.343V34.628C113.343 37.4093 112.633 39.528 111.215 40.984C109.815 42.44 107.845 43.168 105.307 43.168ZM126.755 28.16C128.136 28.16 129.387 28.4773 130.507 29.112C131.627 29.728 132.504 30.6053 133.139 31.744C133.773 32.8827 134.091 34.18 134.091 35.636C134.091 37.1107 133.773 38.4173 133.139 39.556C132.504 40.6947 131.627 41.5813 130.507 42.216C129.405 42.832 128.155 43.14 126.755 43.14C125.56 43.14 124.477 42.8973 123.507 42.412C122.555 41.908 121.771 41.18 121.155 40.228V48.432H119.167V28.272H121.071V31.184C121.668 30.2133 122.452 29.4667 123.423 28.944C124.412 28.4213 125.523 28.16 126.755 28.16ZM126.615 41.376C127.641 41.376 128.575 41.1427 129.415 40.676C130.255 40.1907 130.908 39.5093 131.375 38.632C131.86 37.7547 132.103 36.756 132.103 35.636C132.103 34.516 131.86 33.5267 131.375 32.668C130.908 31.7907 130.255 31.1093 129.415 30.624C128.575 30.1387 127.641 29.896 126.615 29.896C125.569 29.896 124.627 30.1387 123.787 30.624C122.965 31.1093 122.312 31.7907 121.827 32.668C121.36 33.5267 121.127 34.516 121.127 35.636C121.127 36.756 121.36 37.7547 121.827 38.632C122.312 39.5093 122.965 40.1907 123.787 40.676C124.627 41.1427 125.569 41.376 126.615 41.376Z" fill="#F8F7F3"/>
</svg>
